<?xml version="1.0" encoding="UTF-8" standalone="no"?><svg width="256px" height="256px" viewBox="0 0 256 256" version="1.1" xmlns="http://www.w3.org/2000/svg"><title>Commit Message</title><defs><linearGradient id="blue-gradient" x1="0" y1="0" x2="1" y2="1"><stop offset="0" stop-color="#2684FF"/><stop offset="1" stop-color="#0052CC"/></linearGradient></defs><g stroke="none" stroke-width="1" fill="none" fill-rule="evenodd"><rect fill="white" x="0" y="0" width="256" height="256" rx="32"></rect><g transform="translate(32, 32)"><path d="M160,96 H128 A64,64 0 0 0 64,96 H32 A16,16 0 0 0 32,128 H64 A64,64 0 0 0 128,128 H160 A16,16 0 0 0 160,96 Z M96,144 A32,32 0 1 1 96,80 A32,32 0 0 1 96,144 Z" fill="url(#blue-gradient)"/><path d="M160,32 H32 C14.327,32 0,46.327 0,64 L0,152 C0,169.673 14.327,184 32,184 H64 L96,192 L128,184 H160 C177.673,184 192,169.673 192,152 L192,64 C192,46.327 177.673,32 160,32 Z" stroke="url(#blue-gradient)" stroke-width="8" fill-opacity="0.1" fill="url(#blue-gradient)"/></g></g></svg>
