<?xml version="1.0" encoding="UTF-8" standalone="no"?><svg width="256px" height="256px" viewBox="0 0 256 256" version="1.1" xmlns="http://www.w3.org/2000/svg"><title>JIRA Commit Message</title><defs><linearGradient id="jira-blue-1" x1="0.5" y1="0" x2="0.5" y2="1"><stop offset="0" stop-color="#2684FF"/><stop offset="1" stop-color="#0052CC"/></linearGradient></defs><g stroke="none" stroke-width="1" fill="none" fill-rule="evenodd"><path d="M128,16 L53.333,90.667 L53.333,165.333 L128,240 L202.667,165.333 L202.667,90.667 L128,16 Z M128,149.333 L106.667,128 L128,106.667 L149.333,128 L128,149.333 Z" fill="url(#jira-blue-1)" opacity="0.3"/><g transform="translate(64, 64)" fill="#0052CC"><path d="M128,64 H96 A64,64 0 0 0 32,64 H0 A16,16 0 0 0 0,96 H32 A64,64 0 0 0 96,96 H128 A16,16 0 0 0 128,64 Z M64,112 A32,32 0 1 1 64,48 A32,32 0 0 1 64,112 Z"/></g></g></svg>
