<?xml version="1.0" encoding="UTF-8" standalone="no"?><svg width="256px" height="256px" viewBox="0 0 256 256" version="1.1" xmlns="http://www.w3.org/2000/svg"><title>JIRA Commit Message</title><defs><linearGradient id="jira-blue" x1="0" y1="0" x2="1" y2="1"><stop offset="0" stop-color="#2684FF"/><stop offset="1" stop-color="#0052CC"/></linearGradient></defs><g stroke="none" stroke-width="1" fill="none" fill-rule="evenodd"><rect fill="white" x="0" y="0" width="256" height="256" rx="32"></rect><g transform="translate(42, 42)"><path d="M172,84 L128,84 A64,64 0 0 0 44,84 L0,84 A16,16 0 0 0 0,116 L44,116 A64,64 0 0 0 128,116 L172,116 A16,16 0 0 0 172,84 Z M86,132 A32,32 0 1 1 86,68 A32,32 0 0 1 86,132 Z" fill="url(#jira-blue)"/><path d="M87,0 L38,49 L39,85 L87,155 L136,107 L136,25 L87,0 Z M87,85 L72,73 L87,61 L101,73 L87,85 Z" fill="url(#jira-blue)" opacity="0.3"/></g></g></svg>
