<?xml version="1.0" encoding="UTF-8" standalone="no"?><svg width="256px" height="256px" viewBox="0 0 256 256" version="1.1" xmlns="http://www.w3.org/2000/svg"><title>JIRA Commit Message</title><defs><linearGradient id="jira-blue" x1="0" y1="0" x2="1" y2="1"><stop offset="0" stop-color="#2684FF"/><stop offset="1" stop-color="#0052CC"/></linearGradient></defs><g stroke="none" stroke-width="1" fill="none" fill-rule="evenodd"><rect fill="#F4F5F7" x="0" y="0" width="256" height="256" rx="32"></rect><g transform="translate(46, 46)"><path d="M97,0 L40,57 L40,105 L97,162 L154,105 L154,57 L97,0 Z M97,90 L82,75 L97,60 L112,75 L97,90 Z" fill="url(#jira-blue)" opacity="0.25"/><g transform="translate(0, 55)"><path d="M164,16 H115 A80,80 0 0 0 49,16 H0 A16,16 0 0 0 0,48 H49 A80,80 0 0 0 115,48 H164 A16,16 0 0 0 164,16 Z M82,64 A32,32 0 1 1 82,0 A32,32 0 0 1 82,64 Z" fill="url(#jira-blue)"/></g></g></g></svg>
